<svg width="133" height="163" viewBox="0 0 133 163" fill="none" xmlns="http://www.w3.org/2000/svg">
<path d="M46.0186 15.0873C46.241 17.5223 48.4371 19.385 50.4914 19.9663C52.1587 20.4381 53.2961 20.009 54.7656 19.8714C55.1239 19.892 55.2365 19.8485 56.5827 19.4946C73.2877 15.1045 79.5521 14.1831 81.8653 14.1831C82.3916 14.1831 82.5731 14.2331 82.5759 14.2339C85.777 15.276 90.2491 16.2241 91.7443 17.4229C90.6243 17.5713 89.1431 17.2997 88.0374 16.9594C86.1465 16.3774 84.0243 16.0822 81.7299 16.0824C76.0228 16.0826 70.4901 17.943 67.9624 20.7114C66.7527 22.0366 66.1817 23.5744 66.3113 25.1591C66.4155 26.4335 67.1029 28.09 69.7851 28.7435C74.0714 29.7873 82.5325 28.0042 87.4663 32.3583C92.6756 36.9551 98.6943 39.2859 105.356 39.2859C110.055 39.2859 114.005 38.1025 116.413 37.1577C117.137 39.3858 119.217 41 121.665 41H127.473C130.521 41 133 38.4994 133 35.4254V10.6705C133 7.59655 130.521 5.09592 127.473 5.09592H121.665C119.221 5.09592 117.144 6.70518 116.416 8.92764L101.932 2.53728C98.4337 0.85376 93.9749 0 88.6796 0C72.5772 0 53.0094 7.88019 50.6134 9.06937C46.5458 11.0881 45.8695 13.4563 46.0186 15.0873ZM119.885 10.6705C119.885 9.68068 120.684 8.8753 121.665 8.8753H127.473C128.454 8.8753 129.253 9.68068 129.253 10.6705V35.4254C129.253 36.4152 128.454 37.2206 127.473 37.2206H121.665C120.684 37.2206 119.885 36.4152 119.885 35.4254V11.6943V10.6705ZM52.2677 12.4606C54.5611 11.3224 73.2865 3.77938 88.6796 3.77938C93.4252 3.77938 97.3491 4.51314 100.343 5.95988C100.403 5.98917 99.3078 5.5041 116.138 12.9304V33.1801C114.371 33.9768 110.33 35.5065 105.356 35.5065C99.6288 35.5065 94.4399 33.4902 89.9339 29.5137C85.5394 25.6359 79.4391 25.4945 74.9849 25.3917C73.2395 25.3513 70.6219 25.2908 70.0456 24.8456C70.0298 24.6523 69.9864 24.0741 70.7193 23.2715C72.5229 21.296 77.1538 19.8619 81.7304 19.8618C83.6268 19.8616 85.4297 20.108 86.9442 20.5742C88.3649 21.0114 89.7927 21.2424 91.0732 21.2424C93.7364 21.2424 94.8952 20.2295 95.3984 19.3797C95.744 18.796 96.1905 17.5669 95.2968 15.8932C93.7259 12.9514 88.4943 12.1894 83.7276 10.6374C83.2382 10.4781 82.6466 10.4041 81.8657 10.4041C76.129 10.4041 60.2432 14.6519 54.6905 16.0858C53.4555 16.1791 52.598 16.4029 52.0363 16.4029C51.8516 16.4029 51.6875 16.3798 51.5041 16.328C50.7605 16.1175 49.805 15.3439 49.7499 14.7411C49.7081 14.2859 50.3427 13.416 52.2677 12.4606Z" fill="#1865A9"/>
<path d="M86.9814 76.9127C86.759 74.4777 84.5629 72.615 82.5086 72.0337C80.8413 71.5619 79.7039 71.991 78.2344 72.1286C77.8761 72.108 77.7635 72.1515 76.4173 72.5054C59.7123 76.8955 53.4479 77.8169 51.1347 77.8169C50.6084 77.8169 50.4269 77.7669 50.4241 77.7661C47.223 76.724 42.7509 75.7759 41.2557 74.5771C42.3757 74.4287 43.8569 74.7003 44.9626 75.0406C46.8535 75.6226 48.9757 75.9178 51.2701 75.9176C56.9772 75.9174 62.5099 74.057 65.0376 71.2886C66.2473 69.9634 66.8183 68.4256 66.6887 66.8409C66.5845 65.5665 65.8971 63.91 63.2149 63.2565C58.9286 62.2127 50.4675 63.9958 45.5337 59.6417C40.3244 55.0449 34.3057 52.7141 27.6445 52.7141C22.9454 52.7141 18.9945 53.8975 16.5871 54.8423C15.863 52.6142 13.7828 51 11.3347 51H5.52684C2.47921 51 0 53.5006 0 56.5746V81.3295C0 84.4035 2.47921 86.9041 5.52684 86.9041H11.3347C13.7789 86.9041 15.8562 85.2948 16.5835 83.0724L31.0681 89.4627C34.5663 91.1462 39.0251 92 44.3204 92C60.4228 92 79.9906 84.1198 82.3866 82.9306C86.4542 80.9119 87.1305 78.5437 86.9814 76.9127ZM13.1147 81.3295C13.1147 82.3193 12.3162 83.1247 11.3349 83.1247H5.52703C4.54568 83.1247 3.7472 82.3193 3.7472 81.3295V56.5746C3.7472 55.5848 4.54568 54.7794 5.52703 54.7794H11.3349C12.3162 54.7794 13.1147 55.5848 13.1147 56.5746V80.3057V81.3295ZM80.7323 79.5394C78.4389 80.6776 59.7135 88.2206 44.3204 88.2206C39.5748 88.2206 35.6509 87.4869 32.6574 86.0401C32.5965 86.0108 33.6922 86.4959 16.8615 79.0696V58.8199C18.6286 58.0232 22.67 56.4935 27.6443 56.4935C33.3712 56.4935 38.5601 58.5098 43.0661 62.4863C47.4606 66.3641 53.5609 66.5055 58.0151 66.6083C59.7605 66.6487 62.3781 66.7092 62.9544 67.1544C62.9702 67.3477 63.0136 67.9259 62.2807 68.7285C60.4771 70.704 55.8462 72.1381 51.2696 72.1382C49.3732 72.1384 47.5703 71.892 46.0558 71.4258C44.6351 70.9886 43.2073 70.7576 41.9268 70.7576C39.2636 70.7576 38.1048 71.7705 37.6016 72.6203C37.256 73.204 36.8095 74.4331 37.7032 76.1068C39.2741 79.0486 44.5057 79.8106 49.2724 81.3626C49.7618 81.5219 50.3534 81.5959 51.1343 81.5959C56.871 81.5959 72.7568 77.3481 78.3095 75.9142C79.5445 75.8209 80.402 75.5971 80.9637 75.5971C81.1484 75.5971 81.3125 75.6202 81.4959 75.672C82.2395 75.8825 83.195 76.6561 83.2501 77.2589C83.2919 77.7141 82.6573 78.584 80.7323 79.5394Z" fill="#1865A9"/>
<path d="M74.8772 67.1765L75.9405 63.3789C75.9986 63.1712 75.994 62.9503 75.9271 62.7452L69.2062 42.1198C70.9815 40.538 72.1949 38.4023 72.6637 36.0873C77.153 35.0679 79.0475 32.2579 79.0475 29.5881C79.0475 28.9705 78.9428 28.3601 78.7303 27.7901C77.6587 24.9168 73.6683 23.841 69.6455 25.3409C69.4273 25.4222 69.2197 25.5104 69.0178 25.602C66.1957 23.2162 62.289 22.3254 58.5515 23.5435C54.0347 25.0153 51 29.1936 51 33.9407C51 39.5723 55.2988 44.29 60.887 44.8313L61.1692 45.6975C61.2362 45.9028 61.3624 46.0837 61.5318 46.2174L64.0558 48.2079L63.1891 51.3032C63.0699 51.7285 63.2184 52.1836 63.5649 52.4569L66.0888 54.4474L65.2221 57.5428C65.1032 57.9682 65.2515 58.4231 65.5982 58.6965L67.9906 60.5834L66.9948 62.5417C66.8633 62.8005 66.84 63.1006 66.9298 63.3762L67.6075 65.4561C67.7142 65.7835 67.9688 66.0415 68.2946 66.1525L73.4712 67.917C73.7558 68.014 74.0676 67.9896 74.3336 67.8495C74.5996 67.7094 74.7962 67.466 74.8772 67.1765ZM76.6806 28.5545C77.0025 29.4175 76.8927 30.4569 76.3877 31.3353C75.9225 32.1442 74.9411 33.1586 72.8767 33.7726C72.8397 31.4225 72.044 29.1517 70.6409 27.3086C73.345 26.3858 76.0762 26.934 76.6806 28.5545ZM69.5181 64.2586L69.1501 63.1295L70.3469 60.7756C70.5833 60.3108 70.4588 59.7439 70.0492 59.4211L67.5254 57.4306L68.3919 54.3352C68.5108 53.9101 68.3626 53.455 68.0159 53.1815L65.4921 51.191L66.3588 48.0957C66.4777 47.6708 66.3296 47.2154 65.9827 46.942L63.1463 44.705L62.7362 43.4466C62.5925 43.0059 62.1868 42.7036 61.7233 42.6921C56.9731 42.5744 53.1873 38.6701 53.1873 33.9408C53.1873 30.1434 55.6152 26.8009 59.2289 25.6234C61.9846 24.7253 64.8413 25.2611 67.0417 26.8325C65.7594 27.9052 65.0046 29.2152 64.5639 30.4454C63.4618 29.621 61.9897 29.3253 60.5845 29.783C58.2618 30.5399 57.0373 33.0181 57.7802 35.2984C58.5276 37.5921 61.0018 38.85 63.2955 38.1025C65.4623 37.3965 66.7066 35.1699 66.2057 32.9739C66.3859 31.4544 66.9862 29.6167 68.6636 28.3391C69.9843 29.9242 70.6925 31.928 70.6925 33.9441C70.6925 36.6446 69.4131 39.2392 67.2698 40.8847C66.9021 41.167 66.7524 41.6503 66.8959 42.0911L73.7445 63.1081L73.0823 65.4733L69.5181 64.2586ZM64.1285 33.9434C64.1285 34.8927 63.5215 35.7282 62.6179 36.0227C61.471 36.3964 60.2339 35.7674 59.8603 34.6207C59.4873 33.4766 60.1036 32.2406 61.2623 31.8629C62.4091 31.4893 64.1285 32.4569 64.1285 33.9434Z" fill="#1865A9"/>
<path d="M28.8662 100.161C29.1935 99.9558 29.5431 99.8545 29.8706 99.8247L62.6214 96.8407C62.9489 96.8109 63.311 96.8473 63.67 96.99C65.5717 97.7461 68.7436 100.018 70.5898 104.263C70.9518 105.096 70.5703 106.064 69.7377 106.426C68.9051 106.788 67.9366 106.407 67.5745 105.574C66.1831 102.374 63.891 100.703 62.6698 100.138L30.4188 103.076C29.0748 104.025 26.4931 106.859 26.2484 111.683C26.2279 112.087 26.0635 112.449 25.8074 112.723C27.4065 114.081 29.1988 114.554 30.1478 114.611L43.6617 113.38C44.566 113.297 45.3657 113.963 45.4481 114.868C45.5305 115.772 44.8643 116.572 43.9601 116.654L30.2317 117.905L30.1291 117.901C28.0062 117.83 23.6664 116.548 21.1455 112.188L15.0901 112.74C14.1162 112.829 13.3919 113.694 13.4818 114.68L13.4949 114.824C13.5752 115.705 14.2839 116.391 15.1569 116.445L20.1009 116.753C21.8368 116.861 22.8387 118.76 21.9673 120.254L20.4426 122.867C20.0391 123.558 19.861 124.36 19.9338 125.159L20.6769 133.314C20.8699 135.432 22.7375 136.987 24.8406 136.795L36.6181 135.722C37.5223 135.64 38.3221 136.306 38.4044 137.21C38.4868 138.114 37.8206 138.914 36.9164 138.996L25.1389 140.069C24.4035 140.136 23.6842 140.089 22.9986 139.942L23.2832 143.066C23.3387 143.675 23.8745 144.117 24.472 144.062L33.3315 143.255C33.929 143.2 34.3718 142.623 34.2894 141.718C34.2071 140.814 34.8732 140.014 35.7775 139.932C36.6817 139.85 37.4814 140.516 37.5638 141.42C37.8149 144.176 36.0435 146.309 33.6298 146.529L24.7703 147.336C22.3566 147.556 20.2284 145.774 20.0089 143.364L19.5352 138.084C18.3551 136.938 17.5635 135.379 17.4025 133.612L16.6595 125.457C16.5247 123.978 16.8542 122.493 17.6028 121.21L18.3447 119.938L14.9526 119.727C12.4543 119.571 10.4475 117.613 10.2205 115.122L10.2074 114.978C9.95349 112.191 12.0017 109.72 14.7917 109.465L21.4654 108.857C22.1283 108.797 22.7411 109.02 23.2008 109.415C24.0864 104.4 27.0369 101.308 28.8662 100.161Z" fill="#C5E3FF"/>
<path d="M22.0436 121.972C22.6614 121.307 23.7016 121.268 24.367 121.886L27.2076 124.523L29.8808 124.28C30.785 124.197 31.5848 124.864 31.6671 125.768C31.7495 126.672 31.0833 127.472 30.1791 127.554L27.079 127.837C26.4202 127.897 25.7679 127.673 25.284 127.224L22.1296 124.295C21.4644 123.677 21.4258 122.637 22.0436 121.972Z" fill="#C5E3FF"/>
<path d="M44.5951 133.949C45.2129 133.283 46.2531 133.245 46.9185 133.863L49.7591 136.5L56.5252 135.884C57.4295 135.802 58.2292 136.468 58.3116 137.372C58.394 138.276 57.7278 139.076 56.8236 139.158L49.6305 139.814C48.9717 139.874 48.3194 139.65 47.8355 139.201L44.6811 136.272C44.0159 135.654 43.9773 134.614 44.5951 133.949Z" fill="#C5E3FF"/>
<path d="M96.8735 129.186C97.6015 129.728 97.7514 130.758 97.2086 131.486L94.6358 134.937C94.2408 135.466 93.6393 135.804 92.9812 135.864L85.7877 136.519C84.8835 136.602 84.0837 135.935 84.0014 135.031C83.919 134.127 84.5852 133.327 85.4894 133.245L92.2555 132.628L94.5724 129.521C95.1152 128.793 96.1456 128.643 96.8735 129.186Z" fill="#C5E3FF"/>
<path d="M56.2789 143.757C56.1965 142.853 56.8627 142.053 57.7669 141.971L85.368 139.456C86.2721 139.374 87.072 140.04 87.1544 140.944C87.2367 141.848 86.5705 142.648 85.6663 142.731L58.0653 145.245C57.1611 145.328 56.3613 144.661 56.2789 143.757Z" fill="#C5E3FF"/>
<path fill-rule="evenodd" clip-rule="evenodd" d="M51.4177 112.138C51.745 111.933 52.0945 111.831 52.4221 111.802L85.1728 108.818C85.5003 108.788 85.8625 108.824 86.2215 108.967C88.2278 109.765 91.6885 112.272 93.4662 117.045C93.8467 116.574 94.4092 116.243 95.0723 116.183L101.745 115.575C104.536 115.32 106.997 117.381 107.251 120.168L107.264 120.312C107.491 122.803 105.871 125.092 103.442 125.696L100.144 126.517L101.103 127.634C102.071 128.76 102.664 130.161 102.799 131.64L103.542 139.796C103.703 141.562 103.206 143.238 102.253 144.579L102.74 149.858C102.96 152.267 101.189 154.405 98.7754 154.625L89.916 155.433C87.5023 155.652 85.3663 153.784 85.1234 151.118C85.0411 150.215 85.7072 149.414 86.6115 149.332C87.5157 149.25 88.3155 149.916 88.3978 150.82C88.4802 151.724 89.0202 152.213 89.6177 152.158L98.4771 151.351C99.0746 151.297 99.5215 150.766 99.466 150.157L99.1813 147.032C98.5339 147.301 97.8352 147.477 97.0993 147.544L47.6904 152.046C46.9549 152.113 46.2357 152.066 45.55 151.918L45.8347 155.043C45.8902 155.652 46.4259 156.093 47.0234 156.039L55.883 155.232C56.4805 155.177 56.9233 154.6 56.8409 153.695C56.7585 152.791 57.4247 151.991 58.3289 151.909C59.2331 151.826 60.0329 152.493 60.1153 153.397C60.3954 156.471 58.595 158.286 56.1813 158.506L47.3217 159.313C44.908 159.533 42.7799 157.75 42.5604 155.341L42.0866 150.061C40.9065 148.914 40.1149 147.356 39.954 145.589L39.2109 137.434C39.0761 135.954 39.4057 134.469 40.1542 133.187L40.8962 131.915L37.504 131.704C35.0058 131.548 32.9989 129.59 32.772 127.099L32.7589 126.955C32.505 124.168 34.5532 121.697 37.3432 121.442L44.0169 120.834C44.6798 120.774 45.2926 120.997 45.7523 121.392C46.6379 116.377 49.5884 113.285 51.4177 112.138ZM48.3589 124.699C49.958 126.058 51.7502 126.53 52.6993 126.588L87.5723 123.411C88.4953 123.183 90.1725 122.394 91.5002 120.769C91.1984 120.546 90.9714 120.219 90.8786 119.826C89.7661 115.126 86.7147 112.805 85.2213 112.115L52.9702 115.053C51.6262 116.002 49.0446 118.836 48.7998 123.66C48.7793 124.064 48.615 124.426 48.3589 124.699ZM37.6415 124.717C36.6677 124.805 35.9434 125.671 36.0333 126.657L36.0464 126.801C36.1267 127.682 36.8353 128.368 37.7084 128.422L42.6523 128.73C44.3882 128.838 45.3902 130.737 44.5188 132.231L42.9941 134.844C42.5906 135.535 42.4125 136.337 42.4853 137.136L43.2283 145.291C43.4213 147.409 45.289 148.963 47.392 148.772L96.801 144.27C98.904 144.078 100.461 142.212 100.268 140.094L99.5246 131.939C99.4518 131.14 99.1312 130.384 98.6095 129.777L96.6383 127.482C95.511 126.171 96.153 124.122 97.8406 123.702L102.648 122.506C103.497 122.294 104.07 121.492 103.99 120.61L103.976 120.467C103.887 119.48 103.018 118.76 102.044 118.849L95.9886 119.401C94.2972 124.145 90.2607 126.189 88.185 126.643L88.0855 126.665L52.7832 129.882L52.6806 129.878C50.5577 129.806 46.2179 128.525 43.6969 124.165L37.6415 124.717Z" fill="#C5E3FF"/>
</svg>
