<svg width="134" height="158" viewBox="0 0 134 158" fill="none" xmlns="http://www.w3.org/2000/svg">
<rect x="67.7381" y="12.8798" width="74.8116" height="124.318" transform="rotate(27.8743 67.7381 12.8798)" fill="#1865A9"/>
<g filter="url(#filter0_d_269_128)">
<rect x="52.8034" y="0.180786" width="79" height="125" transform="rotate(21.4508 52.8034 0.180786)" fill="#C5E3FF"/>
</g>
<path d="M49 41C49.0868 42.823 49.1736 44.646 49.7826 45.5851C51.6439 48.4554 55.5606 45.9981 57.2823 46.7833C57.8365 47.036 57.9413 47.75 58.5963 47.9697C60.2453 48.5227 61.3584 47.1397 63.6773 47.4844C67.1622 48.0023 66.6248 51.6065 66.8418 52.1326C67.3942 53.4715 72.9855 50.6594 76.3079 50.9462C78.8333 51.1641 78.1941 54.237 79.0293 55.3761C80.6931 57.6452 86.5224 56.6887 87.7522 58.4433C89.4554 60.8733 94.1563 59.8454 95.8544 61.0765C96.8858 61.8243 99.4596 61.2554 100.667 61.646C101.874 62.0367 101.874 62.8179 102.048 63.3506C102.222 63.8833 102.569 64.1437 102.927 64.4121" stroke="#1865A9" stroke-opacity="0.69" stroke-linecap="round"/>
<path d="M41 59C41.2604 60.4757 41.5209 61.9515 41.8286 62.8419C42.1364 63.7324 42.4836 63.9928 43.574 64.127C48.933 64.7864 50.8147 63.9981 51.9524 64.2585C54.0736 64.7441 54.3212 67.0601 57.2543 69.1198C59.3619 70.5998 63.5071 71.3637 67.816 70.927C70.3353 70.6717 71.9513 71.098 72.3879 71.7096C73.8029 73.6914 75.6288 75.7409 76.7718 76.709C77.386 77.2292 77.8253 77.9375 78.3501 78.3755C79.4141 79.2635 83.4995 78.8187 86.1524 79.6894C87.5421 80.1455 88.608 81.181 90.0535 81.7952C91.1439 82.491 91.9436 83.2854 92.4671 83.9417C92.8169 84.2508 93.3378 84.5113 93.8744 84.7796" stroke="#1865A9" stroke-opacity="0.69" stroke-linecap="round"/>
<path d="M33 75C33 75.6945 33 76.3995 33.0868 77.0558C33.1289 77.3741 33.3472 77.6253 33.6537 77.8463C34.3343 78.337 36.1435 78.4197 38.3335 78.5934C41.1362 78.8156 42.1123 83.1442 43.3421 84.4227C44.5847 85.7145 46.4106 85.4328 50.7379 87.1374C55.5544 89.0347 61.4075 87.9766 61.8455 88.2817C62.877 89.0004 63.5093 90.252 65.1745 91.9606C65.7642 92.5656 67.7919 92.8879 71.6404 92.7577C75.5065 92.6268 77.9775 92.0987 78.81 92.8366C79.4095 93.3679 79.2086 95.0502 79.4269 95.8972C79.9925 96.9179 82.26 97.0968 84.2474 97.882C84.5565 98.1464 84.8169 98.4068 85.0853 98.6751" stroke="#1865A9" stroke-opacity="0.69" stroke-linecap="round"/>
<path d="M22 97C29.4471 100.246 31.3753 99.8936 32.5578 100.067C34.6148 100.369 35.6737 102.871 38.1214 103.487C39.0604 103.723 40.3877 103.576 41.2755 103.967C42.8924 104.679 43.3918 106.291 44.3085 106.991C47.0512 109.084 51.273 107.701 54.5191 107.696C57.2354 107.691 57.7705 110.237 61.1757 110.634C65.0678 111.088 68.1165 111.026 69.2108 111.683C70.8182 112.647 71.8861 114.441 72.5911 115.935C73.6133 118.101 76.095 117.255 77.1946 117.604C78.1153 118.394 79.6884 118.571 80.9642 118.963C81.272 119.181 81.6192 119.528 81.977 119.886" stroke="#1865A9" stroke-opacity="0.69" stroke-linecap="round"/>
<path d="M66.7978 26.104C65.449 25.5651 64.4928 24.6068 63.9293 23.2292C63.3659 21.8516 63.3629 20.465 63.9205 19.0694C64.4781 17.6737 65.4358 16.6709 66.7934 16.0608C68.151 15.4508 69.5043 15.4152 70.8531 15.9541C72.202 16.4931 73.1582 17.4514 73.7217 18.829C74.2851 20.2066 74.2881 21.5932 73.7305 22.9888C73.1729 24.3844 72.2152 25.3873 70.8576 25.9973C69.5 26.6074 68.1467 26.643 66.7978 26.104ZM52.9326 32.3345L54.352 28.782C54.6392 28.063 55.0821 27.4737 55.6805 27.0139C56.2789 26.5542 56.9379 26.2841 57.6573 26.2037C59.1863 26.0545 60.6703 26.0773 62.1092 26.2721C63.5482 26.467 64.9421 26.8339 66.2909 27.3728C67.6398 27.9117 68.9027 28.6064 70.0798 29.4567C71.2568 30.3071 72.3479 31.3131 73.3532 32.4749C73.8191 33.0289 74.1105 33.6787 74.2274 34.4242C74.3443 35.1698 74.2591 35.902 73.9718 36.621L72.5525 40.1734L52.9326 32.3345ZM56.3989 30.7769L71.1138 36.6561L71.5193 35.6411C71.6123 35.4085 71.6406 35.1746 71.6042 34.9394C71.5678 34.7041 71.4788 34.4969 71.3371 34.3177C70.4616 33.3058 69.5188 32.4326 68.5088 31.698C67.4988 30.9635 66.4216 30.3675 65.2771 29.9103C64.1326 29.453 62.9413 29.1425 61.7032 28.9789C60.4651 28.8152 59.1802 28.7984 57.8484 28.9284C57.6223 28.9606 57.4149 29.0495 57.2265 29.1949C57.0381 29.3403 56.8974 29.5293 56.8044 29.7619L56.3989 30.7769ZM67.8117 23.5666C68.4861 23.836 69.1627 23.8183 69.8415 23.5132C70.5204 23.2082 70.9992 22.7068 71.278 22.009C71.5568 21.3112 71.5553 20.6179 71.2736 19.929C70.9918 19.2402 70.5138 18.7611 69.8393 18.4916C69.1649 18.2222 68.4883 18.2399 67.8094 18.545C67.1306 18.85 66.6518 19.3514 66.373 20.0492C66.0942 20.747 66.0957 21.4403 66.3774 22.1292C66.6592 22.818 67.1372 23.2971 67.8117 23.5666Z" fill="#1865A9" fill-opacity="0.69"/>
<circle cx="66.9811" cy="26.9811" r="16.3124" transform="rotate(16.9377 66.9811 26.9811)" stroke="#1865A9" stroke-opacity="0.69"/>
<circle cx="16.5" cy="96.5" r="16.5" fill="#1865A9"/>
<path d="M14.787 102.896L7.6026 96.5167L9.39869 94.9218L14.787 99.7066L26.3513 89.4375L28.1474 91.0324L14.787 102.896Z" fill="white"/>
<defs>
<filter id="filter0_d_269_128" x="3.09058" y="0.180786" width="127.241" height="153.232" filterUnits="userSpaceOnUse" color-interpolation-filters="sRGB">
<feFlood flood-opacity="0" result="BackgroundImageFix"/>
<feColorMatrix in="SourceAlpha" type="matrix" values="0 0 0 0 0 0 0 0 0 0 0 0 0 0 0 0 0 0 127 0" result="hardAlpha"/>
<feOffset dy="4"/>
<feGaussianBlur stdDeviation="2"/>
<feComposite in2="hardAlpha" operator="out"/>
<feColorMatrix type="matrix" values="0 0 0 0 0 0 0 0 0 0 0 0 0 0 0 0 0 0 0.25 0"/>
<feBlend mode="normal" in2="BackgroundImageFix" result="effect1_dropShadow_269_128"/>
<feBlend mode="normal" in="SourceGraphic" in2="effect1_dropShadow_269_128" result="shape"/>
</filter>
</defs>
</svg>
