<svg width="123" height="166" viewBox="0 0 123 166" fill="none" xmlns="http://www.w3.org/2000/svg">
<g filter="url(#filter0_d_263_266)">
<path d="M34.6239 16.2394C37.1465 7.77061 45.8836 3.46085 54.1387 6.61332L107.932 27.1558C116.187 30.3083 120.834 39.7292 118.311 48.198L88.7776 147.345C86.2549 155.814 77.5178 160.124 69.2627 156.971L15.4699 136.429C7.21479 133.276 2.56773 123.855 5.09038 115.386L34.6239 16.2394Z" fill="#C5E3FF"/>
</g>
<path d="M52.0306 23.3535C52.4419 22.0537 53.7994 21.4154 55.0628 21.9278L101.206 40.644C102.469 41.1564 103.16 42.6255 102.749 43.9254C102.338 45.2252 100.98 45.8635 99.7169 45.3511L53.5735 26.6349C52.3101 26.1225 51.6194 24.6534 52.0306 23.3535Z" fill="white"/>
<g clip-path="url(#clip0_263_266)">
<path d="M79.6251 114.035C79.0626 115.756 77.9196 117.152 76.4476 117.919C74.9755 118.685 73.2949 118.757 71.7756 118.121L37.4029 103.713L21.7038 111.883L38.6699 59.9917C39.2324 58.2714 40.3753 56.8745 41.8474 56.1084C43.3195 55.3423 45.0001 55.2696 46.5194 55.9065L86.6209 72.7153C88.1402 73.3521 89.3739 74.6463 90.0506 76.313C90.7272 77.9798 90.7913 79.8827 90.2289 81.603L79.6251 114.035Z" stroke="#1865A9" stroke-width="4" stroke-linecap="round" stroke-linejoin="round"/>
</g>
<g filter="url(#filter1_d_263_266)">
<path d="M61.443 34C73.6762 34.0002 83.5934 45.2289 83.5934 59.0801C83.5934 70.7285 76.5789 80.5193 67.0723 83.3397C66.4664 83.5194 65.8947 83.8061 65.4161 84.2189L60.0338 88.8626C57.9878 90.6278 54.8164 89.8984 53.7472 87.4167L51.6038 82.4415C51.2719 81.6713 50.7 81.0343 50.0077 80.5608C43.5865 76.1694 39.2926 68.1934 39.2926 59.0801C39.2926 45.2288 49.2097 34 61.443 34Z" fill="#1865A9"/>
<ellipse cx="61.0931" cy="70.8696" rx="2.43478" ry="2.43478" fill="white"/>
<path d="M65.9022 44.4316C64.113 43.5492 62.1022 43.2173 60.1243 43.4777C58.1463 43.7381 56.29 44.5791 54.7901 45.8945C53.8163 46.7486 53.0211 47.7776 52.4418 48.9218C51.9211 49.9501 52.6002 51.1095 53.7135 51.4078L54.3854 51.5878C55.4988 51.8861 56.6167 51.1813 57.325 50.272C57.5262 50.0137 57.7523 49.7737 58.0008 49.5557C58.7767 48.8753 59.7368 48.4403 60.7599 48.3056C61.783 48.1709 62.823 48.3426 63.7485 48.799C64.674 49.2554 65.4433 49.976 65.9593 50.8696C66.4752 51.7633 66.7146 52.7899 66.6471 53.8196C66.5796 54.8492 66.2083 55.8358 65.5801 56.6545C64.952 57.4731 64.0951 58.0871 63.118 58.4188C62.3151 58.6957 62.0991 58.6957 61.2717 58.6957L60.576 58.6957C59.4234 58.6957 58.4891 59.6301 58.4891 60.7827V64.2609C58.4891 65.4135 59.4234 66.3479 60.576 66.3479H61.2717C62.4243 66.3479 63.3586 65.4135 63.3586 64.2609C63.3586 63.7503 63.7287 63.3184 64.2192 63.1763C64.3692 63.1329 64.5236 63.0841 64.6832 63.03C66.5724 62.3887 68.2289 61.2016 69.4434 59.6189C70.6579 58.0361 71.3758 56.1288 71.5063 54.138C71.6367 52.1473 71.174 50.1626 70.1765 48.4348C69.179 46.7071 67.6915 45.314 65.9022 44.4316Z" fill="white"/>
</g>
<defs>
<filter id="filter0_d_263_266" x="0.4039" y="5.58093" width="122.594" height="160.423" filterUnits="userSpaceOnUse" color-interpolation-filters="sRGB">
<feFlood flood-opacity="0" result="BackgroundImageFix"/>
<feColorMatrix in="SourceAlpha" type="matrix" values="0 0 0 0 0 0 0 0 0 0 0 0 0 0 0 0 0 0 127 0" result="hardAlpha"/>
<feOffset dy="4"/>
<feGaussianBlur stdDeviation="2"/>
<feComposite in2="hardAlpha" operator="out"/>
<feColorMatrix type="matrix" values="0 0 0 0 0 0 0 0 0 0 0 0 0 0 0 0 0 0 0.25 0"/>
<feBlend mode="normal" in2="BackgroundImageFix" result="effect1_dropShadow_263_266"/>
<feBlend mode="normal" in="SourceGraphic" in2="effect1_dropShadow_263_266" result="shape"/>
</filter>
<filter id="filter1_d_263_266" x="32.2718" y="34" width="58.3418" height="65" filterUnits="userSpaceOnUse" color-interpolation-filters="sRGB">
<feFlood flood-opacity="0" result="BackgroundImageFix"/>
<feColorMatrix in="SourceAlpha" type="matrix" values="0 0 0 0 0 0 0 0 0 0 0 0 0 0 0 0 0 0 127 0" result="hardAlpha"/>
<feOffset dy="4"/>
<feGaussianBlur stdDeviation="2"/>
<feComposite in2="hardAlpha" operator="out"/>
<feColorMatrix type="matrix" values="0 0 0 0 0 0 0 0 0 0 0 0 0 0 0 0 0 0 0.25 0"/>
<feBlend mode="normal" in2="BackgroundImageFix" result="effect1_dropShadow_263_266"/>
<feBlend mode="normal" in="SourceGraphic" in2="effect1_dropShadow_263_266" result="shape"/>
</filter>
<clipPath id="clip0_263_266">
<rect width="74.5401" height="81.8923" fill="white" transform="matrix(0.92226 0.386571 -0.310763 0.950487 35.3786 40.1737)"/>
</clipPath>
</defs>
</svg>
