<svg width="224" height="48" viewBox="0 0 224 48" fill="none" xmlns="http://www.w3.org/2000/svg">
<path fill-rule="evenodd" clip-rule="evenodd" d="M179.057 17.3817C180.988 19.1744 180.434 18.9676 184.918 17.6576C188.851 16.4161 186.988 16.0025 190.504 18.002C193.678 19.8648 198.851 21.7275 201.267 23.175C200.368 25.1761 192.644 31.7282 190.781 34.4181C191.472 34.7625 192.023 35.0393 192.781 35.3845C193.954 35.9357 193.678 35.9357 195.057 35.1085C198.093 33.3834 207.819 27.866 209.75 27.0373C212.301 28.1412 219.062 31.5906 221.405 31.4523C222.51 31.3838 224.304 31.1079 223.956 29.7279C223.061 26.3485 216.991 24.485 213.059 22.7607C211.474 22.0719 211.888 22.141 211.543 20.4152C211.127 18.5532 208.506 5.03383 207.886 4.34503C207.61 4.13823 205.472 3.24186 205.059 3.03429C204.851 4.27661 204.714 5.65576 204.645 6.96572L203.956 14.6218C203.956 15.8633 203.748 17.3117 203.541 18.484C201.748 17.5877 199.954 16.8289 198.092 15.9325C188.85 11.5175 190.503 14.4842 188.368 9.518C187.124 6.75892 187.124 5.10301 184.435 5.51815C184.918 11.0355 183.403 14.485 179.057 17.3817ZM181.058 10.5535C182.091 10.8987 181.677 12.4839 180.506 12.2087L178.918 11.6575C177.954 11.3807 178.229 9.72558 179.47 10.07L181.058 10.5535ZM1.37851 47.7307C0.48291 48.4203 -0.552643 47.0404 0.345291 46.4192L1.03412 45.7996C1.9989 45.0401 2.96526 46.4884 2.1373 47.1104L1.37851 47.7307ZM6.13791 43.9361C5.23997 44.6265 4.2068 43.2466 5.03242 42.5578L6.41313 41.523C7.30949 40.8327 8.34499 42.1426 7.44707 42.833L6.13791 43.9361ZM11.5177 39.7295C10.6913 40.4191 9.58656 39.1091 10.4845 38.4188L11.8628 37.384C12.7592 36.6952 13.864 38.0059 12.8976 38.7639L11.5177 39.7295ZM17.0366 35.7973C16.0718 36.4192 15.1723 34.9709 16.0718 34.3497L17.4486 33.3834C18.4857 32.7638 19.3805 34.2121 18.4158 34.8333L17.0366 35.7973ZM22.6916 31.935C21.7268 32.5562 20.8305 31.1086 21.7268 30.4867L23.1728 29.5903C24.14 28.9699 25.0363 30.4183 24.14 31.0379L22.6916 31.935ZM28.4181 28.2796C27.5202 28.9 26.5554 27.5208 27.5202 26.8313L29.0385 25.9349C29.8657 25.3829 30.8989 26.7621 29.8657 27.4524L28.4181 28.2796ZM34.2799 24.8309C33.2436 25.3821 32.5556 23.8646 33.4512 23.3826L34.9702 22.4855C36.0034 22.0034 36.7638 23.5202 35.7966 24.003L34.2799 24.8309ZM40.2793 21.5883C39.2461 22.0719 38.4858 20.622 39.5213 20.0708L41.0373 19.312C42.0736 18.7608 42.7616 20.3468 41.7976 20.8311L40.2793 21.5883ZM46.4209 18.554C45.3846 19.0368 44.6259 17.5193 45.6598 17.0373L47.1789 16.2777C48.1437 15.7949 48.9709 17.3125 47.9377 17.7945L46.4209 18.554ZM52.5571 15.7265C51.4524 16.1401 50.9012 14.5534 51.9367 14.139L53.4527 13.4494C54.5582 13.0366 55.1786 14.6918 54.1431 15.0362L52.5571 15.7265ZM58.9017 13.1742C57.8685 13.5878 57.1797 12.0019 58.2821 11.5183L59.8696 10.9671C60.902 10.5535 61.5232 12.1395 60.4892 12.5531L58.9017 13.1742ZM65.2494 10.8287C64.0755 11.1739 63.7311 9.44959 64.6982 9.17438L66.3525 8.62163C67.5264 8.27724 67.8701 9.93159 66.9037 10.2768L65.2494 10.8287ZM71.7316 8.69005C70.6284 9.03444 70.2156 7.38009 71.2496 7.1041L72.9062 6.62132C74.0086 6.27537 74.4906 7.93128 73.3875 8.20726L71.7316 8.69005ZM78.2852 6.89809C77.3181 7.1733 76.6985 5.58735 77.8724 5.2414L79.5252 4.82858C80.7691 4.55337 80.9751 6.27693 79.9396 6.4845L78.2852 6.89809ZM84.905 5.38133C83.8026 5.58735 83.5282 3.86224 84.5614 3.65545L86.2872 3.31105C87.3896 3.10426 87.6672 4.75939 86.5625 4.9654L84.905 5.38133ZM91.5971 4.07059C90.5639 4.27738 90.1472 2.6207 91.3219 2.41468C91.873 2.2763 92.4242 2.20789 93.047 2.06951C94.0117 1.9319 94.493 3.58704 93.3222 3.79384C92.6994 3.86225 92.1483 4.0014 91.5971 4.07059ZM98.3575 3.03506C97.1821 3.17266 97.0453 1.51753 98.15 1.38071L99.8036 1.17235C100.977 1.03475 101.117 2.75985 100.011 2.82904L98.3575 3.03506ZM105.116 2.34471C104.013 2.48309 103.807 0.759541 104.977 0.621159L106.702 0.483553C107.736 0.414363 108.012 2.06951 106.772 2.20711L105.116 2.34471ZM111.875 1.9319C110.701 1.9319 110.771 0.207571 111.806 0.207571L113.532 0.137606C114.703 0.137606 114.703 1.79352 113.601 1.86349L111.875 1.9319ZM118.705 1.7251C117.6 1.7251 117.53 0.0691908 118.705 0C119.256 0 119.877 0 120.428 0C121.464 0 121.601 1.7251 120.428 1.7251C119.807 1.7251 119.256 1.7251 118.705 1.7251ZM125.532 1.86271C124.29 1.79352 124.498 0.0684094 125.6 0.136823L127.257 0.206788C128.429 0.275979 128.29 1.99953 127.188 1.93112L125.532 1.86271ZM132.292 2.20711C131.187 2.1387 131.256 0.414361 132.43 0.551965L134.156 0.68957C135.259 0.758761 135.12 2.4139 134.017 2.34393L132.292 2.20711ZM139.05 2.89746C138.017 2.75986 138.085 1.03475 139.258 1.17235C139.811 1.24154 140.43 1.31074 140.981 1.38071C142.018 1.44912 141.949 3.17344 140.774 3.03506C140.223 2.96665 139.672 2.89746 139.05 2.89746ZM145.81 3.72464C144.638 3.51785 145.052 1.86271 146.085 2.06951L147.81 2.34471C148.913 2.5515 148.569 4.2082 147.535 4.00141L145.81 3.72464ZM152.571 4.89699C151.466 4.6902 151.743 3.03507 152.846 3.24264L154.568 3.51784C155.605 3.72464 155.329 5.44975 154.225 5.2414L152.571 4.89699ZM159.191 6.27693C158.157 6.07013 158.432 4.3458 159.605 4.62178L161.261 4.96619C162.431 5.31214 161.881 6.89809 160.847 6.62288L159.191 6.27693ZM165.814 7.86209C164.708 7.51847 165.193 5.93253 166.227 6.20773L167.952 6.62211C169.055 6.9665 168.573 8.55245 167.467 8.27724L165.814 7.86209ZM172.365 9.65639C171.331 9.38118 171.745 7.72449 172.85 8.00203L174.504 8.48403C175.539 8.76001 175.193 10.4843 174.022 10.1392L172.365 9.65639Z" fill="#1865A9"/>
</svg>
